<svg xmlns="http://www.w3.org/2000/svg" viewBox="0 0 64 64" fill="none" aria-hidden="true">
  <g stroke="currentColor" stroke-width="1.2" stroke-linecap="round">
    <!-- Concentric wavy rings (sound/vinyl motif) -->
    <path d="M32 8a24 24 0 0 1 0 48 24 24 0 0 1 0-48" opacity="0.95"/>
    <path d="M32 12a20 20 0 0 1 0 40 20 20 0 0 1 0-40" opacity="0.85"/>
    <path d="M32 16a16 16 0 0 1 0 32 16 16 0 0 1 0-32" opacity="0.75"/>
    <path d="M32 20a12 12 0 0 1 0 24 12 12 0 0 1 0-24" opacity="0.65"/>
    <path d="M32 24a8 8 0 0 1 0 16 8 8 0 0 1 0-16" opacity="0.55"/>
    <path d="M32 28a4 4 0 0 1 0 8 4 4 0 0 1 0-8" opacity="0.45"/>
  </g>
  <circle cx="32" cy="32" r="2" fill="currentColor"/>
</svg>
